<svg xmlns="http://www.w3.org/2000/svg" width="180" height="120" viewBox="0 0 180 120" fill="none">
<g stroke="#547a65" stroke-opacity=".27" stroke-width="1">
<path d="M28 120V72Q28 47 49 39Q72 30 90 8Q108 30 131 39Q152 47 152 72V120M36 120V74Q36 53 54 46Q76 37 90 20Q104 37 126 46Q144 53 144 74V120"/>
<path stroke-dasharray="2 3" d="M21 120V72Q21 42 45 33Q71 23 90 1Q109 23 135 33Q159 42 159 72V120"/>
<path d="M90 96V67m0 17c-17 0-21-12-17-19 12 1 17 10 17 19Zm0 0c17 0 21-12 17-19-12 1-17 10-17 19ZM90 68c-10-9-10-17 0-24 10 7 10 15 0 24ZM54 113h72m-68-5h64"/>
</g></svg>
